<?xml version="1.0" encoding="utf-8"?>
<!-- Generator: Adobe Illustrator 13.0.0, SVG Export Plug-In . SVG Version: 6.00 Build 14948)  -->
<!DOCTYPE svg PUBLIC "-//W3C//DTD SVG 1.1//EN" "http://www.w3.org/Graphics/SVG/1.1/DTD/svg11.dtd">
<svg version="1.1" id="Layer_1" xmlns="http://www.w3.org/2000/svg" xmlns:xlink="http://www.w3.org/1999/xlink" x="0px" y="0px"
	 width="515.122px" height="65.983px" viewBox="0 0 515.122 65.983" enable-background="new 0 0 515.122 65.983"
	 xml:space="preserve">
<g>
	<g>
		<path fill="#41AD49" d="M0,60.062l7.19-1.691V12.689L0,10.997V6.344l24.109-0.423v5.076l-8.036,1.692V31.3h28.339V12.689
			l-8.036-1.692V6.344l24.109-0.423v5.076l-7.19,1.692V58.37l7.19,1.691v5.076H36.376v-5.076l8.036-1.691V38.067H16.073V58.37
			l8.036,1.691v5.076H0V60.062z"/>
		<path fill="#41AD49" d="M108.708,41.874c0,14.381-8.459,24.109-21.148,24.109s-20.303-7.613-20.303-22.84
			c0-14.382,8.882-23.687,21.572-23.687C101.518,19.457,108.708,28.339,108.708,41.874z M76.139,42.72
			c0,10.151,3.384,16.496,11.843,16.496s11.843-5.922,11.843-16.919c0-9.306-2.96-16.073-11.42-16.073
			C79.946,26.224,76.139,31.723,76.139,42.72z"/>
		<path fill="#41AD49" d="M130.197,26.309c2.03-1.776,8.713-6.852,15.735-6.852c9.305,0,13.535,5.921,13.535,15.227V58.37
			l6.345,2.115v4.652h-20.303v-4.652l5.499-2.115V35.529c0-5.921-2.115-8.882-7.613-8.882c-7.191,0-12.267,6.768-12.267,6.768V58.37
			l5.499,2.115v4.652h-21.149v-4.652l7.19-2.115v-31.3l-7.19-1.692v-4.652l13.958-0.423L130.197,26.309z"/>
		<path fill="#41AD49" d="M180.619,43.989c0,9.305,4.991,15.227,12.267,15.227c8.459,0,14.212-4.652,14.212-4.652l2.96,4.398
			c0,0-7.867,7.021-18.019,7.021c-13.535,0-20.303-8.882-20.303-22.84c0-13.536,8.459-23.687,20.726-23.687
			s17.765,7.19,17.765,19.879c0,2.115-0.423,4.483-0.423,4.483L180.619,43.989z M201.26,37.645c0-6.345-2.453-11.59-9.221-11.59
			s-10.574,5.245-11.082,11.59H201.26z"/>
		<path fill="#41AD49" d="M224.78,58.878c0,0,2.538,0.761,7.106,0.761c5.076,0,9.559-1.438,9.559-6.683
			c0-9.137-23.602-4.906-23.602-20.303c0-8.798,6.768-13.197,15.481-13.197c6.683,0,14.466,2.538,14.466,2.538l-0.254,11.421h-5.499
			l-1.354-6.599c0,0-2.623-1.015-6.853-1.015c-4.314,0-7.529,1.354-7.529,5.667c0,9.052,23.602,5.583,23.602,20.049
			c0,9.729-8.459,14.466-18.611,14.466c-7.783,0-13.366-1.861-13.366-1.861v-12.52h5.921L224.78,58.878z"/>
		<path fill="#41AD49" d="M284.59,27.07h-12.267v27.154c0,3.892,1.861,5.161,4.23,5.161c2.03,0,4.398-0.931,6.598-2.115l2.284,4.483
			c-3.807,2.792-7.613,4.229-11.843,4.229c-5.076,0-9.729-2.791-9.729-12.266V27.07h-8.459v-5.499l8.459-0.846V10.066l8.459-1.692
			v12.351h12.267V27.07z"/>
	</g>
	<g>
		<path d="M298.129,54.141c3.384,0,5.499,2.114,5.499,5.921c0,3.808-2.538,5.922-5.499,5.922c-3.384,0-5.498-2.114-5.498-5.922
			C292.631,56.255,295.168,54.141,298.129,54.141z"/>
		<path d="M319.701,12.689l-7.19-1.692V6.344l15.65-0.423h9.729c10.574,0,18.188,4.653,18.188,14.804
			c0,7.613-3.892,11.928-10.997,13.704c8.882,2.03,13.112,7.021,13.112,13.789c0,11.843-7.614,16.919-21.572,16.919h-24.109v-5.076
			l7.19-1.691V12.689z M334.505,31.3c7.614,0,12.689-2.961,12.689-9.729c0-5.921-4.229-8.882-9.729-8.882h-9.305V31.3H334.505z
			 M337.043,58.37c8.037,0,12.267-3.384,12.267-9.729c0-8.459-5.499-10.997-14.805-10.997h-6.344V58.37H337.043z"/>
		<path d="M368.77,22.84c0,0,9.306-3.384,16.496-3.384c9.813,0,15.649,3.384,15.649,13.112V58.37l6.768,1.691v4.653l-13.111,0.423
			l-1.777-5.922c-2.876,2.877-7.951,6.768-13.873,6.768c-8.037,0-12.689-4.652-12.689-12.689c0-9.728,7.613-13.111,19.457-13.111
			h6.768v-6.768c0-5.076-2.961-7.614-8.037-7.614c-5.075,0-8.544,1.269-8.544,1.269l-1.184,6.345h-5.499L368.77,22.84z
			 M386.534,45.681c-8.459,0-11.674,2.115-11.674,7.19c0,3.808,2.368,6.345,6.176,6.345c6.344,0,11.42-6.768,11.42-6.768v-6.768
			H386.534z"/>
		<path d="M428.326,26.309c2.03-1.776,8.713-6.852,15.734-6.852c9.306,0,13.535,5.921,13.535,15.227V58.37l6.345,2.115v4.652
			h-20.303v-4.652l5.498-2.115V35.529c0-5.921-2.114-8.882-7.613-8.882c-7.19,0-12.266,6.768-12.266,6.768V58.37l5.498,2.115v4.652
			h-21.148v-4.652l7.19-2.115v-31.3l-7.19-1.692v-4.652l13.958-0.423L428.326,26.309z"/>
		<path d="M497.78,26.563l-3.807-1.185v-4.652l18.611-0.423v5.075l-6.007,1.016h-0.084l-8.714,12.942l10.913,19.034h0.085
			l6.344,2.115v4.652h-11.42l-12.097-21.571h-7.36V58.37l5.499,2.115v4.652h-21.148v-4.652l7.19-2.115V6.768l-7.19-1.692V0.423
			L484.245,0v37.222h7.19L497.78,26.563z"/>
	</g>
</g>
</svg>
